<?xml version="1.0" standalone="no"?>
<!DOCTYPE svg PUBLIC "-//W3C//DTD SVG 20010904//EN"
 "http://www.w3.org/TR/2001/REC-SVG-20010904/DTD/svg10.dtd">
<svg version="1.0" xmlns="http://www.w3.org/2000/svg"
 width="512.000000pt" height="512.000000pt" viewBox="0 0 512.000000 512.000000"
 preserveAspectRatio="xMidYMid meet">

<g transform="translate(0.000000,512.000000) scale(0.100000,-0.100000)"
fill="#519aba" stroke="none">
<path d="M2920 3940 l0 -400 -815 0 -815 0 0 -975 0 -975 815 0 815 0 2 -406
3 -406 1098 892 c604 491 1094 896 1090 900 -4 4 -429 349 -943 767 -514 417
-1002 814 -1085 881 -82 67 -153 122 -157 122 -4 0 -8 -180 -8 -400z"/>
<path d="M80 3507 c-19 -12 -43 -38 -54 -57 -21 -34 -21 -49 -24 -855 -2 -569
0 -836 8 -871 31 -147 223 -176 290 -44 20 38 20 57 20 886 l0 847 -25 42
c-43 74 -146 99 -215 52z"/>
<path d="M731 3508 c-19 -13 -44 -39 -55 -58 -21 -34 -21 -49 -24 -855 -2
-451 0 -839 3 -863 4 -30 17 -56 41 -82 76 -84 204 -68 255 31 18 37 19 66 19
880 0 825 0 844 -20 883 -28 57 -63 79 -130 84 -45 3 -61 0 -89 -20z"/>
</g>
</svg>
